<svg xmlns="http://www.w3.org/2000/svg" viewBox="0 0 990 216"><defs><style>.cls-1{stroke:#000;stroke-miterlimit:10;}.cls-2{fill:#b21752;}.cls-3{fill:lime;}.cls-4{fill:#ff0;}.cls-5{fill:#27c8cc;}</style></defs><title>Artboard 1</title><g id="Layer_1" data-name="Layer 1"><rect class="cls-1" x="0.18" y="0.04" width="990" height="215.92"/></g><g id="Layer_2" data-name="Layer 2"><path class="cls-2" d="M79.35,74.65A12.83,12.83,0,0,0,82.89,65c-.84-7.61-8.85-1.84-10.16,2.56C64.82,94.11,56.74,121,41,144.16l8.65,2.69L52,141.5c1.06-2.42,1.14-6.77-2.17-7.3s-6.23,3.89-7.33,6.42L40.13,146c-1,2.31-1.16,6.07,1.59,7.12,2.94,1.12,5.71-2.44,7.06-4.43C65.27,124.43,74,96.24,82.24,68.42L72.08,71l1.75-4.12c-1.93,2.14-3.92,6.91-1.89,9.56,2.17,2.84,5.76.07,7.41-1.77Z"/><path class="cls-2" d="M99.88,68.67c.74,25.42-18.61,46.16-25.93,69.49-.78,2.48-1.33,6.74,2.17,7.3,3.23.52,6.52-3.83,7.33-6.42,8.17-26.06,28.06-47.72,27.23-76.38-.09-3.28-2.68-4.59-5.51-3.18-3.07,1.52-5.4,5.81-5.3,9.19Z"/><path class="cls-2" d="M41.76,106.14c14.81-5,30-8.47,45.31-11.6,7.67-1.57,15.35-3.08,23-4.62s15.56-3.87,23.32-4.57l-2.48-.25.68.31L130,81.93l.05.47,2.65-6.9-.31.37,5.34-3-.38-.09c-5.54-1.32-11.86,12.12-5.16,13.72l.38.09c2,.47,4.23-1.65,5.34-3,2-2.39,4.45-7.36,2.15-10.41-2-2.67-6.16-1.06-8.79-.54l-30.33,6.06C81.83,82.59,62.76,86.44,44.3,92.65a10.54,10.54,0,0,0-6.53,8.08c-.41,2.44.54,6.57,4,5.41Z"/><path class="cls-2" d="M39.63,128.09q42.33-12.74,85.65-21.7c5.48-1.13,10.06-15,2.54-13.49q-43.29,8.94-85.65,21.7c-3.4,1-6,4.67-6.53,8.08-.43,2.54.53,6.45,4,5.41Z"/><path class="cls-3" d="M205.65,49.63,210,43.09l-8.65-2.69c-7.21,18.06-14.21,36.23-21.67,54.19a86.1,86.1,0,0,1-12.72,21c-5.14,6.47-9.94,13.09-12.86,20.89-.92,2.46-1.24,6.75,2.17,7.3s6.38-3.85,7.33-6.42c2.73-7.29,8.22-12.92,12.85-19a101.85,101.85,0,0,0,12.73-22.83c7.46-18,14.45-36.13,21.67-54.19.93-2.34,1.21-6.05-1.59-7.12s-5.74,2.42-7.06,4.43l-4.32,6.54c-1.43,2.17-2.71,7.1.15,8.75,3,1.76,6.26-2.14,7.65-4.25Z"/><path class="cls-3" d="M145.33,103.85c24.42-4.38,49.83-7.28,73.22-15.84a10.64,10.64,0,0,0,6.53-8.08c.4-2.36-.55-6.67-4-5.41C197.7,83.08,172.29,86,147.87,90.37c-5.51,1-10.14,14.85-2.54,13.49Z"/><path class="cls-3" d="M204.7,107.74c-7.58,6.39-14.13,15.76-15.48,25.8-1.25,9.35,3.13,17.92,13.64,16.21,20.5-3.32,34.41-26.75,36.46-45.79,1-9.75-9.82-3.82-10.52,2.67-1.21,11.26-6.78,22.5-17.35,27.69-4.34,2.13-11.66,3.78-11.68-3.18,0-5.15,4.18-9.86,7.86-13,2.47-2.08,4.84-6.39,3.73-9.69s-4.5-2.58-6.68-.75Z"/><path class="cls-3" d="M249.11,126.25c14.41,1.59,29.21-8,34.26-21.57,1-2.72,1.77-6.82-.9-8.86s-8.36-1.64-11.61-1.67c-7.6-.06-15.09,1.67-21,6.65-6.26,5.25-9.33,12.92-9.87,20.91-.49,7.32-.86,15.48,6.49,19.23,14.82,7.57,33.72,7.89,46.26-4.12,2.36-2.26,4.89-6.26,3.73-9.69-1.07-3.19-4.59-2.75-6.68-.75-5,4.83-11.68,6.63-18.56,6.24A43.19,43.19,0,0,1,259,130.08c-2.62-.94-7.26-2.09-8.16-5-.78-2.59-.41-6.55-.08-9.22s1.16-4.26,3.61-5.64a21,21,0,0,1,9.51-2.28c2.52-.09,8.89-.55,11,.93l-1.45-2,.2.93.45-4.92c-2.35,7.8-12.8,10.5-19.89,9.72-5.78-.64-11.8,13-5.16,13.72Z"/><path class="cls-3" d="M335,99.71c-6.68-6.07-18.57-2.4-25.46,1.65-7.14,4.2-14.56,19.38-2.84,22.67,5,1.39,10.28,1.52,15.3,2.89a51.71,51.71,0,0,1,8.6,3,14.63,14.63,0,0,1,3.49,2.13c.19.17,2.4,3.06,2.1,3-.62-.13,3.75-3.54-.77-2-1.38.47-2.8.86-4.22,1.2a50,50,0,0,1-9.1,1.36,58.67,58.67,0,0,1-17.38-1.86c-5.5-1.39-11.85,12-5.16,13.72a60.14,60.14,0,0,0,33.32-.94c9.25-3,17.94-12.78,12.71-22.92-4.46-8.66-18.55-10.89-27.18-12.25-.71-.11-6.58-1.58-7-1.38l-1.67,3.77a12,12,0,0,1,1.85-.92,33.81,33.81,0,0,1,3.23-1.19c4.48-1.44,8.93-2.33,12.68,1.08,4.19,3.81,12.21-8.72,7.5-13Z"/><path class="cls-3" d="M398.7,97.38c-10.09.23-20.68,1-29.58,6.27-8.35,4.93-15,13.28-16.91,22.89-5.06,25.51,28,20.34,42,13.67,5.21-2.48,7.83-16.19-.21-12.37-5.74,2.73-34.41,10.11-31.32-4,2.61-11.91,21.52-12.56,30.82-12.77,5.84-.13,11.51-13.87,5.16-13.72Z"/><path class="cls-3" d="M425.06,57q-21.54,41.64-42.29,83.68c-1.15,2.33-2.9,7,.15,8.75,2.84,1.64,6.53-2,7.65-4.25q20.74-42,42.29-83.68c1.2-2.31,2.87-7-.15-8.75s-6.49,2-7.65,4.25Z"/><path class="cls-3" d="M451.77,104.16a42.55,42.55,0,0,0-26.66,5.3c-7.65,4.38-18.17,13.15-18,22.87.22,11,15,9.43,21.92,6.73,10.5-4.07,17.92-12.68,24.81-21.22l-8-2.56c-1.27,6.46-2.8,12.92-3.82,19.42-.73,4.65-.57,8.88,3.17,12.08,4.36,3.73,12.32-8.86,7.5-13-1.37-1.17,1-7.56,1.25-8.95l2.42-12.24c1.22-6.18-4.77-6.58-8-2.56-4,5-8,10.23-13.49,13.7a22.84,22.84,0,0,1-8.82,3.44,15.63,15.63,0,0,1-5.37-.05,4.08,4.08,0,0,1-1.8-.6q-1.81-1.3-1.83,2.57c-.14-.06,4.84-5,5.39-5.39a30.63,30.63,0,0,1,6.8-3.83,34,34,0,0,1,17.38-2c5.75.77,11.83-12.83,5.16-13.72Z"/><path class="cls-3" d="M512.23,102.87c-6.77,1.74-10.8,7.23-14.36,12.86-4.53,7.15-9,14.33-13.64,21.39q-13.7,20.72-28.76,40.49c-1.77,2.33-4,6.78-1.89,9.56s5.9.23,7.41-1.77q13.38-17.64,25.8-36,6.07-8.94,11.88-18,3-4.75,6-9.55c1.33-2.13,2.41-4.8,5-5.47,3.4-.88,6-4.77,6.53-8.08.45-2.66-.53-6.3-4-5.41Z"/><path class="cls-3" d="M465.61,107.67l8.18,18.25c2.31,5.16,4.27,10.76,8,15.09,4.43,5.14,13.08-6.95,9.3-11.33-3.61-4.19-5.48-9.54-7.72-14.53L476,98.72c-3.18-7.1-12.71,3.8-10.41,8.95Z"/><path class="cls-3" d="M559.22,99.88A34.73,34.73,0,0,0,528,99c-9,4.13-18.32,16.06-9.19,24.9,3.75,3.63,9.2,4.5,14.18,5.16a39,39,0,0,1,8.55,1.62,12,12,0,0,1,3.53,1.85s3,3.58,2.47,3.57l1-1.89a10.9,10.9,0,0,1-1.85.57c-1.15.13-2.3.46-3.46.62a107.59,107.59,0,0,1-11,.86c-3.3.1-17.08.73-17.91-3.72-.66-3.54-4.78-2.28-6.68-.75a10.56,10.56,0,0,0-3.73,9.69c1.12,6,8.06,7.29,13.18,8,6.78,1,13.66.36,20.44-.3,5.72-.55,11.13-1.56,15.41-5.71s6.64-10.53,5-16.35c-1.45-5.21-5.68-8.49-10.64-10.07-5.8-1.85-13.15-.85-18.4-4.15-.93-.58-1.69-1.9-2.51-2.34q-1.2-2.32-1.74,2.69.76-.48,1.55-.91c2.63-1,4.91-2.18,7.76-2.66a27.52,27.52,0,0,1,17.79,3.15c5.43,2.94,12.88-10.07,7.5-13Z"/><path class="cls-4" d="M577.72,112.26c5.84,0,11.57-13.72,5.16-13.72-5.84,0-11.57,13.72-5.16,13.72Z"/><path class="cls-4" d="M575.39,107.83l-8,36.26c-.73,3.28,1.66,7.36,5.36,4.85L613,121.62l-5.36-4.85-5.76,23.79c-.83,3.41,1.69,7.19,5.36,4.85a90.08,90.08,0,0,0,34.64-41.23c1-2.43,1.16-6.77-2.17-7.3s-6.26,3.88-7.33,6.42A65.94,65.94,0,0,1,607,133l5.36,4.85,5.76-23.79c.8-3.31-1.71-7.33-5.36-4.85l-40.25,27.32,5.36,4.85,8-36.26c.63-2.85-.69-6-4-5.41-3.47.61-5.85,5-6.53,8.08Z"/><path class="cls-4" d="M660.79,114c.52-3.18-.37-7.1-4.4-6.76-4.6.39-7.24,5.79-9.11,9.34A186.29,186.29,0,0,0,635,145.79c-.8,2.48-1.32,6.74,2.17,7.3,3.25.52,6.5-3.83,7.33-6.42,3.27-10.1,7.08-21,13-29.85l-3.79,3.93-2.69-.42-.61-4.33-.1.62c-.47,2.85.58,6,4,5.41s6-5,6.53-8.08Z"/><path class="cls-4" d="M662.17,101.07c5.84,0,11.57-13.72,5.16-13.72-5.84,0-11.57,13.72-5.16,13.72Z"/><path class="cls-4" d="M704.36,62.59l-15.53,42.88c-4.41,12.16-7.8,26-16.68,35.76-1.94,2.14-3.92,6.91-1.89,9.56,2.18,2.85,5.75.06,7.41-1.77,9.95-11,14.4-25.36,19.35-39l16.86-46.53c.89-2.46,1.25-6.75-2.17-7.3s-6.4,3.85-7.33,6.42Z"/><path class="cls-4" d="M675.44,107a147,147,0,0,0,45.07,1.48c5.56-.65,10.29-14.4,2.54-13.49a139,139,0,0,1-42.45-1.71c-5.64-1.08-11.86,12.44-5.16,13.72Z"/><path class="cls-4" d="M740.59,67c-5.23,25.34-19.48,47.74-24.65,73.16l9.91-7q-.87,1.84-.12.64a11.5,11.5,0,0,1,1.42-1.78c.74-.88,1.51-1.74,2.3-2.57a74.26,74.26,0,0,1,6.88-6.34c4.16-3.41,9-7.15,14.28-8.45,4.24-1,10.27.32,9.66,5.95-.5,4.66-6.89,10.06-9.67,13.41-1.86,2.24-4,6.84-1.89,9.56s5.82.15,7.41-1.77c6.52-7.87,14.82-16.29,15-27.21.13-10.07-7.71-15.62-17.24-13.58-9.68,2.07-18.67,9.52-25.6,16.23-6.76,6.54-17.36,17.09-11.69,27.23,3,5.41,9.4-4.48,9.91-7,5.16-25.36,19.4-47.77,24.65-73.16.59-2.85-.66-6-4-5.41s-5.9,5-6.53,8.08Z"/><path class="cls-5" d="M834.93,52.77c-8.52,1.17-11.32,12.18-14.78,19L808,95.59c-7.94,15.59-15.35,31.64-24.26,46.71-1.32,2.24-2.78,7.05.15,8.75s6.37-2.08,7.65-4.25c7.91-13.37,14.51-27.57,21.56-41.4l22.06-43.3L830,66.59l2.4-.33c5.55-.77,10.24-14.55,2.54-13.49Z"/><path class="cls-5" d="M786.26,113.56a298.28,298.28,0,0,0,58.43-10.27c3.4-1,6-4.72,6.53-8.08.44-2.59-.53-6.39-4-5.41a285.61,285.61,0,0,1-55.82,10c-3.53.27-6.16,3.2-7.33,6.42-.66,1.81-1.4,7.58,2.17,7.3Z"/><path class="cls-3" d="M845.33,115.31c5.84,0,11.57-13.72,5.16-13.72-5.84,0-11.57,13.72-5.16,13.72Z"/><path class="cls-5" d="M849.16,101.28c-12.46,1.28-26.41,10-29.73,22.68s8.49,20.67,20.12,20A35.1,35.1,0,0,0,869,123.64c2.44-5.54,3.17-12.35-1.68-16.78-5-4.59-11.94-3.65-18.1-2.45-5.5,1.07-10.1,15-2.54,13.49,3.54-.69,7.85-1.68,11.15.39,2.91,1.83,2.3,3.73.22,5.89a21.58,21.58,0,0,1-16.16,6.09c-3.35-.16-13.36-2.83-12.33-7.48.47-2.15,4.9-4.31,6.71-5.24a29,29,0,0,1,10.36-2.79c5.56-.57,10.31-14.29,2.54-13.49Z"/><path class="cls-5" d="M876.46,107.93l-7.17,24.19c-.74,2.49-1.36,6.73,2.17,7.3s6.19-3.9,7.33-6.42a40.3,40.3,0,0,1,7.11-10.59c2.67-2.89,6.76-7.11,10.8-7.85,10.88-2,3.2,17,.73,20.84-1.41,2.18-2.72,7.09.15,8.75,3,1.75,6.28-2.13,7.65-4.25a48,48,0,0,0,7.91-24.2c.21-6.43-2-14.29-9.53-15s-15.28,5.94-20.29,10.89a68.08,68.08,0,0,0-14,20.56l9.51.89L886,108.81c.74-2.49,1.36-6.73-2.17-7.3-3.2-.51-6.57,3.82-7.33,6.42Z"/><path class="cls-5" d="M926.7,106,916,139.43c-.79,2.48-1.32,6.74,2.17,7.3,3.24.52,6.51-3.83,7.33-6.42l10.66-33.42c.79-2.48,1.32-6.74-2.17-7.3-3.24-.52-6.51,3.83-7.33,6.42Z"/><path class="cls-5" d="M932,85v2a3.4,3.4,0,0,0,5.51,3.18,10.37,10.37,0,0,0,3.79-3.93A11,11,0,0,0,942.86,81V79a3.4,3.4,0,0,0-5.51-3.18,10.37,10.37,0,0,0-3.79,3.93A11,11,0,0,0,932,85Z"/></g></svg>